<?xml version="1.0" encoding="utf-8"?>
<!-- Generator: Adobe Illustrator 25.0.1, SVG Export Plug-In . SVG Version: 6.00 Build 0)  -->
<svg version="1.1" id="Layer_1" xmlns="http://www.w3.org/2000/svg" xmlns:xlink="http://www.w3.org/1999/xlink" x="0px" y="0px"
	 viewBox="0 0 512 163.75" style="enable-background:new 0 0 512 163.75;" xml:space="preserve">
<style type="text/css">
	.st0{fill:#FFFFFF;}
	.st1{fill:#010101;}
	.st2{fill:#046937;}
	.st3{fill:#F15B27;}
	.st4{fill:#1172BA;}
</style>
<g>
	<polygon class="st0" points="215.91,40.13 241.76,30.98 224.26,50.23 222.34,45.5 227.05,40.68 220.24,43.05 	"/>
</g>
<g>
	<path class="st0" d="M67.59,58.33c3.93,0,7.32,1.41,10.17,4.23c2.85,2.82,4.28,6.23,4.28,10.23v50.04H70.04V72.78
		c0-0.67-0.24-1.24-0.72-1.72c-0.48-0.48-1.06-0.72-1.72-0.72H30.9c-0.67,0-1.24,0.24-1.72,0.72c-0.48,0.48-0.72,1.06-0.72,1.72
		v50.04H16.44V37.2h12.01v21.13H67.59z"/>
	<path class="st0" d="M104.84,58.33h36.69c4,0,7.41,1.41,10.23,4.23c2.82,2.82,4.23,6.23,4.23,10.23v35.58c0,4-1.41,7.41-4.23,10.23
		c-2.82,2.82-6.23,4.23-10.23,4.23h-36.69c-4,0-7.41-1.41-10.23-4.23c-2.82-2.82-4.23-6.23-4.23-10.23V72.78
		c0-4,1.41-7.41,4.23-10.23C97.43,59.74,100.84,58.33,104.84,58.33z M141.53,70.34h-36.69c-0.67,0-1.24,0.24-1.72,0.72
		c-0.48,0.48-0.72,1.06-0.72,1.72v35.58c0,0.67,0.24,1.24,0.72,1.72c0.48,0.48,1.06,0.72,1.72,0.72h36.69
		c0.67,0,1.24-0.24,1.72-0.72c0.48-0.48,0.72-1.06,0.72-1.72V72.78c0-0.67-0.24-1.24-0.72-1.72
		C142.77,70.58,142.2,70.34,141.53,70.34z"/>
	<path class="st0" d="M179.67,58.33h36.03v12.01h-36.03c-0.67,0-1.24,0.24-1.72,0.72c-0.48,0.48-0.72,1.06-0.72,1.72v50.04h-12.01
		v-14.46V72.78c0-4,1.41-7.41,4.23-10.23C172.26,59.74,175.67,58.33,179.67,58.33z"/>
	<path class="st0" d="M222.15,122.82V58.33h12.01v64.49H222.15z"/>
	<path class="st0" d="M245.5,70.34V58.33h65.6v14.23l-49.59,38.25h49.59v12.01h-65.6v-14.23l49.59-38.25H245.5z"/>
	<path class="st0" d="M468.91,58.33c4,0,7.41,1.41,10.23,4.23c2.82,2.82,4.23,6.23,4.23,10.23v50.04h-12.01V72.78
		c0-0.67-0.24-1.24-0.72-1.72c-0.48-0.48-1.06-0.72-1.72-0.72h-36.69c-0.67,0-1.24,0.24-1.72,0.72c-0.48,0.48-0.72,1.06-0.72,1.72
		v50.04h-12.01V58.33H468.91z"/>
</g>
<g>
	<path class="st1" d="M495.73,122.82h-8.48v-1.27h7.21v-7.2h1.27V122.82z"/>
	<path class="st1" d="M495.73,113.65h-8.48v-1.27h7.21v-7.2h1.27V113.65z"/>
	<path class="st1" d="M488.53,96.06v6.92c0,0.07,0.03,0.13,0.08,0.18s0.11,0.08,0.18,0.08h5.41c0.07,0,0.13-0.03,0.18-0.08
		s0.08-0.11,0.08-0.18v-6.92h1.27v6.92c0,0.42-0.15,0.79-0.45,1.08c-0.3,0.3-0.66,0.45-1.08,0.45h-5.41c-0.42,0-0.78-0.15-1.08-0.45
		c-0.3-0.3-0.45-0.66-0.45-1.08v-6.92H488.53z"/>
</g>
<g>
	<g>
		<path class="st2" d="M345.93,106.94c0.06-0.05,0.11-0.11,0.16-0.17c1.24-1.71,1.06-4.09-0.45-5.59l-7.42-7.42
			c-1.43-1.43-1.53-3.7-0.24-5.25l7.99-9.59c1.34-1.6,1.37-3.92,0.09-5.56c-0.04-0.05-0.09-0.1-0.14-0.15l-12.9-11.2
			c-0.43-0.37-1.07-0.33-1.45,0.09c-6.92,7.57-11.14,17.66-11.14,28.72c0,10.68,3.93,20.44,10.42,27.92
			c0.38,0.44,1.04,0.48,1.47,0.1L345.93,106.94z"/>
	</g>
	<g>
		<path class="st3" d="M388.68,58.96v63.73c0,0.88,1.03,1.36,1.7,0.8c9.32-7.81,15.26-19.55,15.26-32.66
			c0-13.12-5.93-24.85-15.26-32.66C389.71,57.6,388.68,58.08,388.68,58.96z"/>
	</g>
	<g>
		<path class="st4" d="M375.93,50.98c0-0.46-0.3-0.86-0.73-0.99c-3.85-1.15-7.93-1.76-12.16-1.76c-7.35,0-14.26,1.86-20.29,5.14
			c-0.61,0.33-0.73,1.16-0.23,1.65l18.35,18.05c0.03,0.03,0.06,0.06,0.09,0.09c1.43,1.74,1.43,4.25-0.02,5.98l-8.06,9.67
			c-1.15,1.38-1.06,3.42,0.21,4.69l7.42,7.42c1.68,1.68,1.94,4.29,0.65,6.27c-0.04,0.07-0.1,0.13-0.16,0.19l-19.58,18.64
			c-0.5,0.48-0.41,1.3,0.19,1.65c6.29,3.67,13.61,5.77,21.42,5.77c4.23,0,8.31-0.62,12.16-1.76c0.44-0.13,0.73-0.54,0.73-0.99V50.98
			z"/>
	</g>
</g>
</svg>
